<svg width="275" height="216" viewBox="0 0 275 216" fill="none" xmlns="http://www.w3.org/2000/svg">
<path d="M-61 140.976C-61 127.309 -53.1341 105.208 -37.4024 74.6753L28.5834 -54H99.3761L49.122 74.6753C61.3578 80.7819 71.1173 89.7964 78.4005 101.719C85.6837 113.351 89.3253 126.436 89.3253 140.976C89.3253 162.204 82.0421 180.087 67.4757 194.627C52.9093 208.876 35.1383 216 14.1626 216C-6.81298 216 -24.584 208.876 -39.1504 194.627C-53.7168 180.087 -61 162.204 -61 140.976ZM115.061 140.976C115.061 126.727 122.781 104.627 138.221 74.6753L204.207 -54H275L225.183 74.6753C237.419 80.7819 247.178 89.7964 254.461 101.719C261.745 113.351 265.386 126.436 265.386 140.976C265.386 162.204 258.103 180.087 243.537 194.627C229.261 208.876 211.49 216 190.224 216C169.248 216 151.477 208.876 136.91 194.627C122.344 180.087 115.061 162.204 115.061 140.976Z" fill="white" fill-opacity="0.08"/>
</svg>
