<svg width="15" height="12" viewBox="0 0 15 12" fill="none" xmlns="http://www.w3.org/2000/svg">
<path d="M2.01128 3.02324C2.02881 2.85006 1.96277 2.67889 1.83345 2.56233L0.516207 0.975501V0.738464H4.60625L7.76764 7.6718L10.547 0.738464H14.4461V0.975501L13.3198 2.05534C13.2227 2.12935 13.1746 2.25099 13.1947 2.37139V10.3055C13.1746 10.4259 13.2227 10.5476 13.3198 10.6216L14.4197 11.7014V11.9385H8.8873V11.7014L10.0267 10.5953C10.1387 10.4833 10.1387 10.4504 10.1387 10.2792V3.86604L6.97071 11.9121H6.5426L2.85432 3.86604V9.25863C2.82357 9.48535 2.89886 9.71361 3.05849 9.87756L4.54039 11.6751V11.9121H0.338379V11.6751L1.82028 9.87756C1.97874 9.71333 2.04965 9.48356 2.01128 9.25863V3.02324Z" fill="#171717"/>
</svg>
