<svg width="271" height="266" viewBox="0 0 271 266" fill="none" xmlns="http://www.w3.org/2000/svg">
<path d="M96.246 227.701C149.01 227.701 191.784 184.927 191.784 132.163C191.784 79.3988 149.01 36.625 96.246 36.625C43.4818 36.625 0.708008 79.3988 0.708008 132.163C0.708008 184.927 43.4818 227.701 96.246 227.701Z" fill="#CACCCE"/>
<path d="M96.2461 133.674L159.978 197.405C165.604 191.909 170.522 185.691 174.582 178.901C178.604 172.173 181.789 164.887 183.982 157.182L96.2461 133.674Z" fill="url(#paint0_linear_280_15)"/>
<path d="M96.2461 133.674L119.48 220.384C127.164 218.366 134.451 215.371 141.202 211.539C148.066 207.643 154.372 202.883 159.978 197.405L96.2461 133.674Z" fill="url(#paint1_linear_280_15)"/>
<path d="M184.731 109.964L96.2461 133.673L183.982 157.182C186.113 149.695 187.306 141.813 187.438 133.673C187.446 133.17 187.457 132.667 187.457 132.162C187.458 124.506 186.508 117.071 184.731 109.964Z" fill="url(#paint2_linear_280_15)"/>
<path d="M175.892 87.69C171.947 80.64 167.094 74.168 161.489 68.431L96.2471 133.673L184.732 109.964C182.76 102.083 179.764 94.609 175.892 87.69Z" fill="url(#paint3_linear_280_15)"/>
<path d="M96.2458 209.483C138.948 209.483 173.566 174.866 173.566 132.163C173.566 89.4604 138.948 54.843 96.2458 54.843C53.5431 54.843 18.9258 89.4604 18.9258 132.163C18.9258 174.866 53.5431 209.483 96.2458 209.483Z" fill="#5A4AB1"/>
<path d="M169.687 206.06C169.491 205.864 169.173 205.864 168.977 206.06C168.872 206.165 168.828 206.306 168.835 206.444C158.9 216.156 147.346 223.665 134.485 228.76C134.227 228.862 134.101 229.154 134.203 229.411C134.281 229.608 134.471 229.728 134.67 229.728C134.732 229.728 134.794 229.717 134.855 229.693C147.803 224.563 159.439 217.008 169.451 207.244L224.629 262.422L221.186 265.865H228.908V258.142L225.339 261.711L169.687 206.06Z" fill="#979A9B"/>
<path d="M197.227 105.75H197.184C197.032 105.755 196.89 105.828 196.798 105.95C196.706 106.072 196.675 106.229 196.713 106.377C198.859 114.757 199.947 123.434 199.947 132.168C199.947 139.206 199.237 146.242 197.836 153.079C197.78 153.35 197.955 153.617 198.227 153.673C198.262 153.68 198.295 153.683 198.329 153.683C198.562 153.683 198.772 153.519 198.821 153.282C200.236 146.379 200.952 139.275 200.952 132.169C200.952 123.526 199.897 114.939 197.814 106.633L265.625 88.463L267.147 93.12L270.641 86.234L263.755 82.74L265.313 87.507L197.227 105.75Z" fill="#979A9B"/>
<path d="M194.529 99.006C194.6 99.216 194.795 99.348 195.005 99.348C195.058 99.348 195.112 99.34 195.166 99.322C195.429 99.233 195.57 98.949 195.481 98.686C190.511 83.951 182.123 70.265 171.208 59.073L225.696 4.59503L229.182 8.08003V0.358032H221.46L224.986 3.88503L170.146 58.715C169.951 58.91 169.95 59.226 170.143 59.423C181.121 70.57 189.553 84.258 194.529 99.006Z" fill="#979A9B"/>
<path d="M265.688 178.207L196.932 159.783L196.894 159.761C196.76 159.68 196.596 159.667 196.449 159.724C196.303 159.782 196.193 159.905 196.151 160.057C192.078 174.668 184.648 188.482 174.664 200.004C174.482 200.213 174.505 200.53 174.714 200.712C174.809 200.794 174.926 200.834 175.043 200.834C175.183 200.834 175.323 200.775 175.422 200.661C185.387 189.162 192.832 175.4 196.974 160.835L265.375 179.163L263.699 184.291L270.585 180.798L267.091 173.911L265.688 178.207Z" fill="#979A9B"/>
<path d="M46.5334 142H43.6214L50.1644 123.818H53.3338L59.8768 142H56.9648L51.8246 127.121H51.6825L46.5334 142ZM47.0217 134.88H56.4677V137.188H47.0217V134.88ZM62.2893 147.114V128.364H64.8817V130.574H65.1036C65.2575 130.29 65.4794 129.962 65.7694 129.589C66.0595 129.216 66.4619 128.89 66.9768 128.612C67.4917 128.328 68.1724 128.186 69.0187 128.186C70.1196 128.186 71.1021 128.464 71.9662 129.021C72.8303 129.577 73.508 130.379 73.9992 131.426C74.4964 132.474 74.7449 133.735 74.7449 135.208C74.7449 136.682 74.4993 137.946 74.0081 138.999C73.5168 140.047 72.8421 140.855 71.9839 141.423C71.1257 141.985 70.1462 142.266 69.0454 142.266C68.2168 142.266 67.5391 142.127 67.0123 141.849C66.4915 141.571 66.0831 141.245 65.7872 140.873C65.4913 140.5 65.2634 140.168 65.1036 139.878H64.9438V147.114H62.2893ZM64.8905 135.182C64.8905 136.141 65.0296 136.981 65.3078 137.703C65.586 138.425 65.9884 138.99 66.5152 139.399C67.0419 139.801 67.6871 140.002 68.4506 140.002C69.2436 140.002 69.9065 139.792 70.4392 139.372C70.9719 138.946 71.3743 138.369 71.6466 137.641C71.9247 136.913 72.0638 136.093 72.0638 135.182C72.0638 134.282 71.9277 133.474 71.6555 132.758C71.3891 132.042 70.9867 131.477 70.4481 131.062C69.9154 130.648 69.2496 130.441 68.4506 130.441C67.6811 130.441 67.0301 130.639 66.4974 131.036C65.9707 131.432 65.5712 131.986 65.2989 132.696C65.0267 133.406 64.8905 134.235 64.8905 135.182ZM77.719 147.114V128.364H80.3113V130.574H80.5333C80.6872 130.29 80.9091 129.962 81.1991 129.589C81.4891 129.216 81.8916 128.89 82.4065 128.612C82.9214 128.328 83.6021 128.186 84.4484 128.186C85.5493 128.186 86.5318 128.464 87.3959 129.021C88.26 129.577 88.9376 130.379 89.4289 131.426C89.926 132.474 90.1746 133.735 90.1746 135.208C90.1746 136.682 89.929 137.946 89.4378 138.999C88.9465 140.047 88.2718 140.855 87.4136 141.423C86.5554 141.985 85.5759 142.266 84.4751 142.266C83.6465 142.266 82.9688 142.127 82.442 141.849C81.9212 141.571 81.5128 141.245 81.2169 140.873C80.921 140.5 80.6931 140.168 80.5333 139.878H80.3735V147.114H77.719ZM80.3202 135.182C80.3202 136.141 80.4593 136.981 80.7375 137.703C81.0157 138.425 81.4181 138.99 81.9449 139.399C82.4716 139.801 83.1167 140.002 83.8802 140.002C84.6733 140.002 85.3362 139.792 85.8689 139.372C86.4015 138.946 86.804 138.369 87.0763 137.641C87.3544 136.913 87.4935 136.093 87.4935 135.182C87.4935 134.282 87.3574 133.474 87.0851 132.758C86.8188 132.042 86.4163 131.477 85.8778 131.062C85.3451 130.648 84.6792 130.441 83.8802 130.441C83.1108 130.441 82.4598 130.639 81.9271 131.036C81.4004 131.432 81.0009 131.986 80.7286 132.696C80.4564 133.406 80.3202 134.235 80.3202 135.182ZM93.1487 142V128.364H95.7144V130.53H95.8564C96.105 129.796 96.543 129.219 97.1704 128.799C97.8037 128.373 98.5198 128.159 99.3188 128.159C99.4845 128.159 99.6798 128.165 99.9047 128.177C100.136 128.189 100.316 128.204 100.446 128.222V130.761C100.34 130.731 100.15 130.699 99.8781 130.663C99.6059 130.622 99.3336 130.601 99.0613 130.601C98.434 130.601 97.8747 130.734 97.3834 131C96.8981 131.261 96.5134 131.625 96.2293 132.092C95.9452 132.554 95.8032 133.081 95.8032 133.673V142H93.1487ZM107.999 142.275C106.721 142.275 105.605 141.982 104.652 141.396C103.699 140.81 102.959 139.991 102.433 138.937C101.906 137.884 101.643 136.653 101.643 135.244C101.643 133.829 101.906 132.592 102.433 131.533C102.959 130.474 103.699 129.651 104.652 129.065C105.605 128.479 106.721 128.186 107.999 128.186C109.278 128.186 110.393 128.479 111.346 129.065C112.299 129.651 113.039 130.474 113.566 131.533C114.092 132.592 114.356 133.829 114.356 135.244C114.356 136.653 114.092 137.884 113.566 138.937C113.039 139.991 112.299 140.81 111.346 141.396C110.393 141.982 109.278 142.275 107.999 142.275ZM108.008 140.047C108.837 140.047 109.523 139.828 110.068 139.39C110.612 138.952 111.015 138.369 111.275 137.641C111.541 136.913 111.675 136.111 111.675 135.235C111.675 134.365 111.541 133.566 111.275 132.838C111.015 132.104 110.612 131.515 110.068 131.071C109.523 130.627 108.837 130.406 108.008 130.406C107.173 130.406 106.481 130.627 105.931 131.071C105.386 131.515 104.981 132.104 104.714 132.838C104.454 133.566 104.324 134.365 104.324 135.235C104.324 136.111 104.454 136.913 104.714 137.641C104.981 138.369 105.386 138.952 105.931 139.39C106.481 139.828 107.173 140.047 108.008 140.047ZM121.287 142.302C120.423 142.302 119.642 142.142 118.943 141.822C118.245 141.497 117.691 141.026 117.283 140.411C116.881 139.795 116.679 139.041 116.679 138.147C116.679 137.378 116.827 136.744 117.123 136.247C117.419 135.75 117.819 135.356 118.322 135.066C118.825 134.776 119.387 134.557 120.009 134.409C120.63 134.261 121.263 134.149 121.908 134.072C122.725 133.977 123.388 133.9 123.897 133.841C124.406 133.776 124.776 133.673 125.007 133.531C125.238 133.388 125.353 133.158 125.353 132.838V132.776C125.353 132.001 125.134 131.4 124.696 130.974C124.264 130.548 123.619 130.335 122.761 130.335C121.867 130.335 121.163 130.533 120.648 130.929C120.139 131.32 119.787 131.755 119.591 132.234L117.097 131.666C117.393 130.838 117.825 130.169 118.393 129.66C118.967 129.145 119.627 128.772 120.373 128.541C121.118 128.304 121.903 128.186 122.725 128.186C123.27 128.186 123.847 128.251 124.456 128.381C125.072 128.506 125.646 128.737 126.179 129.074C126.717 129.411 127.158 129.894 127.502 130.521C127.845 131.142 128.016 131.95 128.016 132.945V142H125.424V140.136H125.318C125.146 140.479 124.888 140.816 124.545 141.148C124.202 141.479 123.761 141.754 123.222 141.973C122.684 142.192 122.039 142.302 121.287 142.302ZM121.864 140.171C122.598 140.171 123.225 140.026 123.746 139.736C124.273 139.446 124.672 139.067 124.945 138.6C125.223 138.126 125.362 137.62 125.362 137.082V135.324C125.267 135.419 125.084 135.507 124.812 135.59C124.545 135.667 124.24 135.735 123.897 135.794C123.554 135.848 123.219 135.898 122.894 135.945C122.568 135.987 122.296 136.022 122.077 136.052C121.562 136.117 121.092 136.226 120.666 136.38C120.245 136.534 119.908 136.756 119.653 137.046C119.405 137.33 119.281 137.709 119.281 138.183C119.281 138.839 119.523 139.337 120.009 139.674C120.494 140.005 121.112 140.171 121.864 140.171ZM137.296 142.275C135.976 142.275 134.84 141.976 133.887 141.379C132.94 140.775 132.212 139.943 131.703 138.884C131.194 137.824 130.939 136.611 130.939 135.244C130.939 133.859 131.2 132.637 131.721 131.577C132.242 130.512 132.975 129.681 133.922 129.083C134.869 128.485 135.985 128.186 137.269 128.186C138.305 128.186 139.228 128.378 140.039 128.763C140.85 129.142 141.504 129.675 142.001 130.361C142.504 131.048 142.803 131.85 142.898 132.767H140.314C140.172 132.128 139.847 131.577 139.338 131.116C138.835 130.654 138.16 130.423 137.314 130.423C136.574 130.423 135.926 130.619 135.369 131.009C134.819 131.394 134.39 131.944 134.082 132.661C133.774 133.371 133.621 134.211 133.621 135.182C133.621 136.176 133.771 137.034 134.073 137.756C134.375 138.478 134.801 139.038 135.352 139.434C135.908 139.831 136.562 140.029 137.314 140.029C137.817 140.029 138.273 139.937 138.681 139.754C139.095 139.565 139.441 139.295 139.72 138.946C140.004 138.597 140.202 138.177 140.314 137.685H142.898C142.803 138.567 142.516 139.354 142.037 140.047C141.557 140.739 140.915 141.284 140.11 141.68C139.311 142.077 138.373 142.275 137.296 142.275ZM148.391 133.903V142H145.737V123.818H148.356V130.583H148.524C148.844 129.849 149.332 129.266 149.989 128.834C150.646 128.402 151.504 128.186 152.564 128.186C153.499 128.186 154.316 128.378 155.014 128.763C155.718 129.148 156.263 129.722 156.647 130.485C157.038 131.243 157.233 132.19 157.233 133.326V142H154.579V133.646C154.579 132.646 154.321 131.87 153.807 131.32C153.292 130.764 152.575 130.485 151.658 130.485C151.031 130.485 150.468 130.619 149.971 130.885C149.48 131.151 149.092 131.542 148.808 132.057C148.53 132.566 148.391 133.181 148.391 133.903Z" fill="white"/>
<defs>
<linearGradient id="paint0_linear_280_15" x1="132.264" y1="176.414" x2="140.589" y2="143.555" gradientUnits="userSpaceOnUse">
<stop stop-color="#FF761A"/>
<stop offset="1" stop-color="#FFAB17"/>
</linearGradient>
<linearGradient id="paint1_linear_280_15" x1="128.095" y1="165.74" x2="107.064" y2="183.266" gradientUnits="userSpaceOnUse">
<stop stop-color="#4359AA"/>
<stop offset="1" stop-color="#293972"/>
</linearGradient>
<linearGradient id="paint2_linear_280_15" x1="153.795" y1="170.61" x2="139.337" y2="117.597" gradientUnits="userSpaceOnUse">
<stop stop-color="#BA0826"/>
<stop offset="0.9995" stop-color="#FF7F83"/>
</linearGradient>
<linearGradient id="paint3_linear_280_15" x1="140.815" y1="122.152" x2="129.862" y2="91.0446" gradientUnits="userSpaceOnUse">
<stop stop-color="#3BA1F4"/>
<stop offset="1" stop-color="#15CCEA"/>
</linearGradient>
</defs>
</svg>
