<svg width="127" height="27" viewBox="0 0 127 27" fill="none" xmlns="http://www.w3.org/2000/svg">
<path d="M26.7418 9.20877C26.1579 8.86939 25.4937 8.69275 24.8184 8.69722C24.3075 8.6898 23.8005 8.78695 23.3286 8.98268C22.8566 9.17842 22.4297 9.4686 22.074 9.83541C21.7076 10.1907 21.4178 10.6173 21.2225 11.0889C21.0272 11.5604 20.9305 12.0669 20.9383 12.5773C20.9301 13.088 21.0267 13.5951 21.222 14.0671C21.4173 14.5391 21.7073 14.9661 22.074 15.3217C22.4304 15.6916 22.8591 15.9842 23.3334 16.1813C23.8078 16.3785 24.3176 16.4759 24.8312 16.4676C25.3416 16.4757 25.8482 16.3791 26.3198 16.1838C26.7914 15.9885 27.2179 15.6986 27.5731 15.3319C27.9288 14.9903 28.2127 14.5811 28.4082 14.1283C28.6036 13.6754 28.7067 13.1881 28.7112 12.6949V1.91928H31.6091V12.5875C31.624 13.4819 31.4553 14.3698 31.1135 15.1964C30.7717 16.023 30.264 16.7708 29.6218 17.3934C29.001 18.0338 28.2558 18.5402 27.4319 18.8816C26.608 19.2229 25.7229 19.3919 24.8312 19.3782C23.937 19.3934 23.0492 19.2251 22.2226 18.8838C21.396 18.5424 20.6481 18.0352 20.0252 17.3934C19.3816 16.7714 18.8722 16.024 18.5287 15.1974C18.1851 14.3708 18.0146 13.4826 18.0277 12.5875C18.0133 11.6938 18.1819 10.8066 18.5233 9.98054C18.8646 9.15446 19.3714 8.40699 20.0125 7.78412C20.6373 7.14172 21.3874 6.63453 22.2163 6.29399C23.0452 5.95345 23.9352 5.78683 24.8312 5.80445C25.4811 5.80041 26.1284 5.88648 26.7546 6.06022L26.7418 9.20877Z" fill="white"/>
<path d="M32.7883 5.80447H36.2592L39.5842 12.5926L42.945 5.80447H46.3698L39.5791 19.3783L32.7883 5.80447Z" fill="white"/>
<path d="M51.4315 2.88863C51.4365 3.14569 51.3884 3.40102 51.2903 3.63867C51.1921 3.87631 51.046 4.09116 50.8611 4.26979C50.6834 4.45299 50.4701 4.59787 50.2344 4.69553C49.9986 4.79318 49.7453 4.84153 49.4902 4.8376C49.2329 4.84299 48.9773 4.79535 48.7392 4.69766C48.5012 4.59997 48.2858 4.45433 48.1064 4.26979C47.9232 4.09213 47.7783 3.87884 47.6807 3.64307C47.583 3.40729 47.5347 3.15402 47.5386 2.89886C47.5344 2.64365 47.5826 2.39029 47.6803 2.15447C47.7779 1.91866 47.923 1.7054 48.1064 1.52792C48.2841 1.34383 48.4977 1.1982 48.7339 1.10009C48.9702 1.00197 49.2241 0.953456 49.4799 0.957554C49.7353 0.953503 49.9889 1.00205 50.2247 1.10017C50.4606 1.1983 50.6737 1.3439 50.8509 1.52792C51.0353 1.70312 51.182 1.91422 51.2819 2.14823C51.3817 2.38224 51.4326 2.63421 51.4315 2.88863ZM51.0197 5.80442V19.3833H48.1064V5.80442H51.0197Z" fill="white"/>
<path d="M56.5059 5.80439H58.4447V8.71251H56.9459C55.9228 8.72274 55.4223 8.9248 55.4445 9.31869C55.4445 9.90696 56.5204 10.468 58.6723 11.0017C60.2479 11.3956 61.3468 11.8858 61.9692 12.4723C62.5916 13.0589 62.9019 13.903 62.9002 15.0045C62.9002 16.4487 62.4816 17.54 61.6444 18.2784C60.8071 19.0167 59.5794 19.385 57.9613 19.3833H52.6259L52.6105 16.4726H57.8845C59.1634 16.424 59.8182 16.089 59.8693 15.4725C59.8693 14.9474 59.455 14.5791 58.6263 14.3676C55.8281 13.6685 54.1281 12.9737 53.5262 12.2831C52.9246 11.5877 52.6036 10.6932 52.6259 9.77396C52.6259 7.102 53.9192 5.77881 56.5059 5.80439Z" fill="white"/>
<path d="M67.962 2.88865C67.9673 3.14553 67.9196 3.40075 67.822 3.63839C67.7243 3.87602 67.5786 4.09097 67.3942 4.26982C67.2141 4.45263 66.9983 4.59646 66.7602 4.69238C66.5222 4.7883 66.267 4.83426 66.0104 4.8274C65.7577 4.83126 65.5068 4.78384 65.273 4.688C65.0391 4.59216 64.8271 4.4499 64.6497 4.26982C64.4665 4.09215 64.3217 3.87887 64.224 3.64309C64.1264 3.40732 64.078 3.15405 64.0819 2.89888C64.0777 2.64368 64.1259 2.39032 64.2236 2.1545C64.3213 1.91868 64.4663 1.70543 64.6497 1.52795C64.8246 1.34287 65.0356 1.19563 65.2696 1.09533C65.5037 0.995026 65.7558 0.94379 66.0104 0.94479C66.2663 0.940539 66.5202 0.988983 66.7565 1.08711C66.9928 1.18523 67.2064 1.33094 67.3839 1.51516C67.5695 1.69205 67.7167 1.90533 67.8161 2.14165C67.9156 2.37798 67.9652 2.63227 67.962 2.88865ZM67.5451 5.80445V19.3834H64.6421V5.80445H67.5451Z" fill="white"/>
<path d="M75.9318 19.3782C75.0375 19.394 74.1495 19.226 73.3228 18.8846C72.4961 18.5432 71.7484 18.0357 71.1258 17.3935C70.4836 16.7708 69.9759 16.023 69.6341 15.1964C69.2923 14.3698 69.1236 13.4819 69.1385 12.5875C69.1241 11.6936 69.2931 10.8062 69.6349 9.98006C69.9767 9.15393 70.4841 8.40658 71.1258 7.78412C71.7488 7.14282 72.4968 6.63623 73.3234 6.29571C74.1501 5.95518 75.0379 5.78798 75.9318 5.80445C76.826 5.78925 77.7138 5.95753 78.5404 6.29891C79.367 6.64028 80.1148 7.1475 80.7377 7.78924C81.3788 8.4121 81.8856 9.15958 82.2269 9.98565C82.5682 10.8117 82.7369 11.6989 82.7225 12.5926C82.7373 13.4868 82.5688 14.3744 82.2274 15.201C81.8861 16.0275 81.3791 16.7754 80.7377 17.3986C80.1144 18.0394 79.3664 18.5456 78.5398 18.8861C77.7132 19.2266 76.8256 19.3941 75.9318 19.3782ZM78.6762 15.3319C79.0448 14.9772 79.3366 14.5506 79.5337 14.0785C79.7308 13.6065 79.8289 13.099 79.8221 12.5875C79.8299 12.0772 79.7332 11.5706 79.5379 11.0991C79.3426 10.6275 79.0528 10.201 78.6864 9.84564C78.3308 9.47883 77.9038 9.18865 77.4319 8.99291C76.9599 8.79718 76.4529 8.70004 75.942 8.70745C75.4315 8.69978 74.9248 8.79682 74.4532 8.99258C73.9816 9.18834 73.5552 9.47866 73.2001 9.84564C72.8329 10.2005 72.5424 10.6269 72.3467 11.0985C72.1509 11.5701 72.054 12.0769 72.062 12.5875C72.0536 13.0985 72.1504 13.6058 72.3461 14.0779C72.5419 14.55 72.8326 14.9768 73.2001 15.3319C73.5553 15.6986 73.9818 15.9885 74.4534 16.1838C74.925 16.3791 75.4316 16.4757 75.942 16.4676C76.451 16.4741 76.956 16.3767 77.4261 16.1815C77.8962 15.9862 78.3216 15.6971 78.6762 15.3319Z" fill="white"/>
<path d="M86.8123 5.8044V19.3833H83.9144V5.8044H86.8123ZM88.7536 5.8044C89.6474 5.78895 90.5349 5.95713 91.3612 6.29853C92.1874 6.63993 92.9348 7.14729 93.557 7.78919C94.1987 8.41166 94.7062 9.159 95.048 9.98512C95.3898 10.8113 95.5587 11.6986 95.5443 12.5926V19.3833H92.6336V12.5875C92.6416 12.0769 92.5447 11.5701 92.3489 11.0985C92.1532 10.6268 91.8627 10.2004 91.4955 9.84559C91.1404 9.47862 90.714 9.18829 90.2424 8.99253C89.7708 8.79677 89.2641 8.69974 88.7536 8.70741V5.8044Z" fill="white"/>
<path d="M105.44 19.1224C104.813 19.296 104.165 19.3821 103.514 19.3782C102.62 19.3934 101.732 19.2251 100.906 18.8838C100.079 18.5424 99.3311 18.0352 98.7082 17.3934C98.0669 16.7703 97.5599 16.0224 97.2185 15.1958C96.8772 14.3693 96.7087 13.4816 96.7235 12.5875C96.7091 11.6938 96.8777 10.8066 97.2191 9.98052C97.5604 9.15444 98.0672 8.40697 98.7082 7.7841C99.3316 7.14329 100.08 6.63702 100.906 6.29654C101.733 5.95605 102.62 5.78857 103.514 5.80443C104.408 5.78897 105.296 5.95715 106.122 6.29855C106.948 6.63995 107.695 7.14731 108.318 7.78921C108.959 8.41168 109.467 9.15902 109.809 9.98515C110.15 10.8113 110.319 11.6987 110.305 12.5926V19.3833H107.394V12.4775C107.389 11.9846 107.287 11.4976 107.092 11.0448C106.897 10.5921 106.613 10.1827 106.259 9.8405C105.903 9.4737 105.476 9.18351 105.004 8.98778C104.532 8.79204 104.025 8.6949 103.514 8.70232C103.003 8.69556 102.496 8.79351 102.024 8.99013C101.552 9.18675 101.125 9.47789 100.77 9.84562C100.403 10.2009 100.114 10.6275 99.9183 11.0991C99.723 11.5706 99.6263 12.0772 99.6341 12.5875C99.6259 13.0982 99.7225 13.6053 99.9178 14.0773C100.113 14.5493 100.403 14.9763 100.77 15.3319C101.126 15.6984 101.553 15.9882 102.025 16.1835C102.497 16.3788 103.003 16.4754 103.514 16.4675C104.189 16.4756 104.854 16.3034 105.44 15.9688V19.1224Z" fill="white"/>
<path d="M114.167 8.70743C113.657 8.70006 113.15 8.79723 112.678 8.99297C112.207 9.18871 111.78 9.47888 111.425 9.84561C111.058 10.2008 110.768 10.6273 110.573 11.0988C110.377 11.5704 110.28 12.077 110.287 12.5875V19.3782H107.379V12.5875C107.364 11.6937 107.532 10.8064 107.874 9.98025C108.215 9.15411 108.722 8.40669 109.364 7.78409C109.987 7.14336 110.734 6.63711 111.56 6.29662C112.386 5.95612 113.274 5.78861 114.167 5.80442V8.70743Z" fill="white"/>
<path d="M122.139 19.3783C121.245 19.3935 120.357 19.2252 119.531 18.8838C118.704 18.5424 117.956 18.0352 117.334 17.3935C116.692 16.7703 116.185 16.0224 115.844 15.1959C115.502 14.3693 115.334 13.4817 115.349 12.5875V5.80447H118.259V12.5926C118.251 13.1034 118.348 13.6104 118.543 14.0824C118.738 14.5545 119.028 14.9814 119.395 15.3371C119.751 15.7038 120.178 15.9937 120.65 16.1891C121.122 16.3844 121.629 16.4809 122.139 16.4727V19.3783ZM126.999 19.3783C127.014 20.2724 126.845 21.16 126.504 21.9865C126.162 22.813 125.656 23.5609 125.014 24.1842C124.391 24.8254 123.643 25.3323 122.817 25.6737C121.99 26.015 121.102 26.1836 120.208 26.169V23.2583C120.719 23.2662 121.226 23.1695 121.698 22.9742C122.17 22.7789 122.597 22.4892 122.953 22.1227C123.316 21.7655 123.603 21.3379 123.795 20.8659C123.987 20.394 124.081 19.8877 124.071 19.3783V5.80447H126.981L126.999 19.3783Z" fill="white"/>
<path d="M8.21744 0C10.774 0 12.7918 0.748699 14.271 2.2461C15.7501 3.72524 16.4897 5.85264 16.4897 8.62831V19.3931H13.7505V14.1066H2.68437V19.3931H7.20621e-06V8.62831C7.20621e-06 5.85264 0.739576 3.72524 2.21871 2.2461C3.69785 0.748699 5.69743 0 8.21744 0ZM13.7505 11.7235V8.38178C13.7505 6.42786 13.2575 4.94872 12.2714 3.94437C11.3035 2.94001 9.95223 2.43784 8.21744 2.43784C6.48265 2.43784 5.12221 2.94001 4.13612 3.94437C3.16828 4.94872 2.68437 6.42786 2.68437 8.38178V11.7235H13.7505Z" fill="white"/>
</svg>
